<svg xmlns="http://www.w3.org/2000/svg" viewBox="0 0 128 28"><defs><style>.cls-1{fill:none;}.cls-2{fill:#00c1c1;}.cls-3{fill:#fff;}</style></defs><title>자산 1</title><g id="레이어_2" data-name="레이어 2"><g id="Layer_1" data-name="Layer 1"><rect class="cls-1" width="128" height="28"/><circle class="cls-2" cx="14.64" cy="9.64" r="2.42"/><path class="cls-3" d="M19.54.8a14.75,14.75,0,0,0-17,22.28,6.18,6.18,0,0,1,1.32-.65,6.1,6.1,0,0,1,5.5.73,6.54,6.54,0,0,1,2.27,2.75,2.7,2.7,0,0,1,.43.08l.07,0h0a2.39,2.39,0,0,1,.45.19h0l.16.09A2.52,2.52,0,0,1,14,27.85c.05.2.2.23.32-.06a3.46,3.46,0,0,1,3-2.15,4.44,4.44,0,0,1,3.07-2.43,4.26,4.26,0,0,1,2.9.43A4.51,4.51,0,0,1,25,25.33,14.75,14.75,0,0,0,19.54.8ZM17.28,18.48a11.34,11.34,0,0,1-2.64,2.65A11.34,11.34,0,0,1,12,18.48a9.53,9.53,0,0,0-3.5,1.86,6.23,6.23,0,0,1,1.77-5.58,11.29,11.29,0,0,1,4.37-12,11.29,11.29,0,0,1,4.37,12,6.23,6.23,0,0,1,1.77,5.58A9.53,9.53,0,0,0,17.28,18.48Z"/><circle class="cls-2" cx="57.88" cy="5.37" r="4.53"/><path class="cls-3" d="M69.67,6.84a6.76,6.76,0,0,0-6.82,6.8,6.86,6.86,0,0,0,6.77,6.8,6.35,6.35,0,0,0,3.7-1.4v1.53A3.26,3.26,0,0,1,70,23.93a4.63,4.63,0,0,1-2.58-.84,1.6,1.6,0,0,0-1-.28,1.8,1.8,0,0,0-1.81,1.81,1.83,1.83,0,0,0,.87,1.57,7.64,7.64,0,0,0,4.32,1.19c4,0,6.52-3,6.52-6.8v-7A6.64,6.64,0,0,0,69.67,6.84ZM70,17a3.35,3.35,0,1,1,3.35-3.35A3.35,3.35,0,0,1,70,17Z"/><path class="cls-3" d="M46,6.84c-1.54,0-3.65.7-3.65,1.4V3.33a2,2,0,0,0-4,0V13.64a7.08,7.08,0,0,0,7.19,6.8,7,7,0,0,0,7.07-6.8A6.71,6.71,0,0,0,46,6.84ZM45.73,17a3.35,3.35,0,1,1,3.35-3.35A3.35,3.35,0,0,1,45.73,17Z"/><path class="cls-3" d="M112.87,13.64a7.06,7.06,0,0,0,7.16,6.8c3.84,0,7.3-3,7.3-6.8V3.33a2,2,0,0,0-4,0v4.9a6.54,6.54,0,0,0-3.77-1.4A6.79,6.79,0,0,0,112.87,13.64Zm3.49,0A3.35,3.35,0,1,1,119.71,17,3.35,3.35,0,0,1,116.36,13.64Z"/><path class="cls-3" d="M87.38,6.84a7,7,0,0,0-7,6.8V24a2,2,0,0,0,4,0V19c0,.7,2,1.4,3.51,1.4a6.71,6.71,0,0,0,6.61-6.8A7,7,0,0,0,87.38,6.84ZM87.44,17a3.35,3.35,0,1,1,3.35-3.35A3.35,3.35,0,0,1,87.44,17Z"/><path class="cls-3" d="M103.63,6.84a6.9,6.9,0,0,0-7,6.8,7,7,0,0,0,14,0A6.9,6.9,0,0,0,103.63,6.84Zm0,10.15A3.35,3.35,0,1,1,107,13.64,3.35,3.35,0,0,1,103.63,17Z"/><path class="cls-3" d="M57.88,11a1.8,1.8,0,0,0-1.81,1.82v5.5a1.81,1.81,0,0,0,3.63,0v-5.5A1.8,1.8,0,0,0,57.88,11Z"/></g></g></svg>