<svg id="Layer_1" data-name="Layer 1" xmlns="http://www.w3.org/2000/svg" viewBox="0 0 48 15.09"><defs><style>.cls-1{fill:#7c7486;}</style></defs><title>battery</title><path class="cls-1" d="M486.39,71.11a1.51,1.51,0,0,1,1.51,1.51v4.53a1.51,1.51,0,0,1-1.51,1.51v1.89a1.89,1.89,0,0,1-1.89,1.89H441.78a1.89,1.89,0,0,1-1.89-1.89V69.22a1.89,1.89,0,0,1,1.89-1.89H484.5a1.89,1.89,0,0,1,1.89,1.89v1.89Zm0,6V72.62h-1.51V69.22a0.36,0.36,0,0,0-.38-0.38H441.78a0.36,0.36,0,0,0-.38.38V80.54a0.36,0.36,0,0,0,.38.38H484.5a0.36,0.36,0,0,0,.38-0.38V77.14h1.51Z" transform="translate(-439.89 -67.34)"/></svg>