<svg id="Layer_1" data-name="Layer 1" xmlns="http://www.w3.org/2000/svg" viewBox="0 0 48 48"><defs><style>.cls-1{fill:#221e1f;}</style></defs><title>loss</title><path class="cls-1" d="M715.44,57.91a24,24,0,0,0-32.77-1.07l-0.06-.06-1.13,1.13h0L680.35,59l0.06,0.06a24,24,0,0,0,33.84,33.83L714.31,93l2.26-2.26-0.06-.06A24,24,0,0,0,715.44,57.91Zm-17-3.83A20.79,20.79,0,0,1,714.25,88.4l-29.32-29.3A20.65,20.65,0,0,1,698.46,54.08Zm0,41.6a20.79,20.79,0,0,1-15.79-34.32L712,90.66A20.65,20.65,0,0,1,698.46,95.68Z" transform="translate(-674.46 -50.88)"/></svg>