<svg id="Layer_1" data-name="Layer 1" xmlns="http://www.w3.org/2000/svg" viewBox="0 0 48 48"><defs><style>.cls-1{fill:#221e1f;}</style></defs><title>reset</title><path class="cls-1" d="M385.71,70a4.91,4.91,0,1,0,3.47,1.44A4.89,4.89,0,0,0,385.71,70Z" transform="translate(-361.71 -50.88)"/><path class="cls-1" d="M409.71,73.52H402a16.32,16.32,0,0,0-14.92-14.92V50.88h-2.73v7.71a16.32,16.32,0,0,0-14.92,14.92h-7.71v2.73h7.72a16.32,16.32,0,0,0,14.92,14.92v7.72h2.73V91.16A16.32,16.32,0,0,0,402,76.24h7.71V73.52Zm-16.29,9.07a10.81,10.81,0,0,1-6.35,3.1V82.54h-2.73v3.14a10.84,10.84,0,0,1-9.44-9.44H378V73.52h-3.14a10.84,10.84,0,0,1,9.44-9.44v3.15h2.73V64.07a10.84,10.84,0,0,1,9.44,9.44h-3.14v2.73h3.14A10.83,10.83,0,0,1,393.41,82.58Z" transform="translate(-361.71 -50.88)"/></svg>