<svg id="Layer_1" data-name="Layer 1" xmlns="http://www.w3.org/2000/svg" viewBox="0 0 40.39 48"><defs><style>.cls-1{fill:#221e1f;}</style></defs><title>seat</title><path class="cls-1" d="M91.09,51.08H89.51a4.72,4.72,0,0,0-4.74,4.7v0.34A1.93,1.93,0,0,0,86.71,58h2.1v1.23h-2.2A2.54,2.54,0,0,0,84.2,61l-0.91,2.29h0s-4.63,3.06-6,15h9.65c-0.19-.6,3.94-11.25,5.58-16.83a1.72,1.72,0,0,0-.68-1.9V57.94a1.88,1.88,0,0,0,1.34-1.79v-3A2.05,2.05,0,0,0,91.09,51.08Z" transform="translate(-52.76 -51.08)"/><path class="cls-1" d="M87.92,79.55H61.46A5.41,5.41,0,0,0,56,84.94v5.33a3.13,3.13,0,0,0,1.18,2.44l8,6.36H85.87A1.24,1.24,0,0,0,86.8,97L84.63,94.6A3.29,3.29,0,0,1,84,91.16l5.52-9.26A1.72,1.72,0,0,0,87.92,79.55Z" transform="translate(-52.76 -51.08)"/><path class="cls-1" d="M57.33,95.33a1.56,1.56,0,0,1-1.1.45H54.34a1.57,1.57,0,0,0-1.58,1.56V98a1.07,1.07,0,0,0,1.07,1.06h1.93a2.5,2.5,0,0,0,1.85-.81l2.28-2.49-1.68-1.34Z" transform="translate(-52.76 -51.08)"/></svg>