<svg id="Layer_1" data-name="Layer 1" xmlns="http://www.w3.org/2000/svg" viewBox="0 0 48 48"><defs><style>.cls-1{fill:#221e1f;}</style></defs><title>setting</title><path d="M774.84,97.88a1.53,1.53,0,0,1-1.51-1.33L772.64,91,772,90.86a16.55,16.55,0,0,1-3.38-1.41l-0.58-.32-4.38,3.41a1.52,1.52,0,0,1-2-.12l-2.55-2.55a1.52,1.52,0,0,1-.12-2l3.41-4.38-0.32-.58a16.5,16.5,0,0,1-1.41-3.38l-0.18-.63-5.5-.69a1.52,1.52,0,0,1-1.33-1.51V73.07A1.52,1.52,0,0,1,755,71.56l5.5-.69,0.18-.63a16.5,16.5,0,0,1,1.41-3.38l0.32-.58L759,61.9a1.52,1.52,0,0,1,.13-2l2.55-2.55a1.52,1.52,0,0,1,2-.12l4.38,3.41,0.58-.32A16.55,16.55,0,0,1,772,58.9l0.63-.18,0.69-5.5a1.53,1.53,0,0,1,1.51-1.33h3.61A1.53,1.53,0,0,1,780,53.21l0.69,5.5,0.63,0.18a16.55,16.55,0,0,1,3.38,1.41l0.58,0.32,4.38-3.41a1.52,1.52,0,0,1,2,.13l2.55,2.55a1.52,1.52,0,0,1,.13,2l-3.41,4.38,0.32,0.58a16.63,16.63,0,0,1,1.41,3.38l0.18,0.63,5.5,0.69a1.52,1.52,0,0,1,1.33,1.51v3.61a1.52,1.52,0,0,1-1.33,1.51l-5.5.69-0.18.63a16.63,16.63,0,0,1-1.41,3.38l-0.32.58,3.41,4.38a1.52,1.52,0,0,1-.13,2l-2.55,2.55a1.51,1.51,0,0,1-1.08.45h0a1.5,1.5,0,0,1-.93-0.32l-4.38-3.41-0.58.32a16.55,16.55,0,0,1-3.38,1.41l-0.63.18L780,96.54a1.53,1.53,0,0,1-1.51,1.33h-3.61Zm1.81-35.34a12.34,12.34,0,1,0,8.73,3.62A12.26,12.26,0,0,0,776.65,62.53Z" transform="translate(-752.65 -50.88)"/><path class="cls-1" d="M778.45,52.88a0.52,0.52,0,0,1,.52.46l0.61,4.85,0.16,1.31L781,59.86a15.56,15.56,0,0,1,3.17,1.32l1.15,0.63,1-.81,3.86-3a0.52,0.52,0,0,1,.69,0l2.55,2.55a0.52,0.52,0,0,1,0,.69l-3,3.86-0.81,1,0.63,1.15a15.57,15.57,0,0,1,1.32,3.18L792,71.78l1.31,0.16,4.85,0.61a0.52,0.52,0,0,1,.46.52v3.61a0.52,0.52,0,0,1-.46.52l-4.85.61L792,78l-0.37,1.27a15.57,15.57,0,0,1-1.32,3.18l-0.63,1.15,0.81,1,3,3.86a0.52,0.52,0,0,1,0,.69l-2.55,2.55a0.52,0.52,0,0,1-.69,0l-3.86-3-1-.81-1.15.63A15.56,15.56,0,0,1,781,89.9l-1.27.37-0.16,1.31L779,96.42a0.52,0.52,0,0,1-.52.46h-3.61a0.52,0.52,0,0,1-.52-0.46l-0.61-4.85-0.16-1.31-1.27-.37a15.57,15.57,0,0,1-3.18-1.32L768,87.94l-1,.81-3.86,3a0.52,0.52,0,0,1-.69,0l-2.55-2.55a0.52,0.52,0,0,1,0-.69l3-3.86,0.81-1-0.63-1.15a15.57,15.57,0,0,1-1.32-3.18L761.26,78,760,77.81l-4.85-.61a0.52,0.52,0,0,1-.46-0.52V73.07a0.52,0.52,0,0,1,.46-0.52l4.85-.61,1.31-.16,0.37-1.27a15.57,15.57,0,0,1,1.32-3.18l0.63-1.15-0.81-1-3-3.86a0.52,0.52,0,0,1,0-.69L762.37,58a0.52,0.52,0,0,1,.69,0l3.86,3,1,0.81,1.15-.63a15.57,15.57,0,0,1,3.18-1.32l1.27-.37,0.16-1.31,0.61-4.85a0.52,0.52,0,0,1,.52-0.46h3.61m-1.81,35.34a13.33,13.33,0,1,0-9.43-3.91,13.25,13.25,0,0,0,9.43,3.91m1.81-37.34h-3.61a2.52,2.52,0,0,0-2.5,2.21l-0.61,4.85a17.53,17.53,0,0,0-3.58,1.49l-3.86-3a2.52,2.52,0,0,0-3.33.21l-2.55,2.55a2.52,2.52,0,0,0-.21,3.33l3,3.86A17.53,17.53,0,0,0,759.7,70l-4.85.61a2.52,2.52,0,0,0-2.21,2.5v3.61a2.52,2.52,0,0,0,2.21,2.5l4.85,0.61a17.53,17.53,0,0,0,1.49,3.58l-3,3.86a2.52,2.52,0,0,0,.21,3.33L761,93.13a2.52,2.52,0,0,0,3.33.21l3.86-3a17.53,17.53,0,0,0,3.58,1.49l0.61,4.85a2.52,2.52,0,0,0,2.5,2.21h3.61a2.52,2.52,0,0,0,2.5-2.21l0.61-4.85a17.52,17.52,0,0,0,3.58-1.49l3.86,3a2.52,2.52,0,0,0,3.33-.21l2.55-2.55a2.52,2.52,0,0,0,.21-3.33l-3-3.86a17.53,17.53,0,0,0,1.49-3.58l4.85-.61a2.52,2.52,0,0,0,2.21-2.5V73.07a2.52,2.52,0,0,0-2.21-2.5L793.59,70a17.53,17.53,0,0,0-1.49-3.58l3-3.86a2.52,2.52,0,0,0-.21-3.33l-2.55-2.55a2.52,2.52,0,0,0-3.33-.21l-3.86,3a17.52,17.52,0,0,0-3.58-1.49L781,53.09a2.52,2.52,0,0,0-2.5-2.21h0Zm-1.81,35.34a11.34,11.34,0,1,1,8-3.32,11.27,11.27,0,0,1-8,3.32h0Z" transform="translate(-752.65 -50.88)"/></svg>