<svg id="Layer_1" data-name="Layer 1" xmlns="http://www.w3.org/2000/svg" viewBox="0 0 48 17.83"><title>temperature</title><path d="M565.53,69.94a1.82,1.82,0,0,0-1.33-.55H534a8.91,8.91,0,0,1,1,1.51H564.2a0.36,0.36,0,0,1,.38.38v7.2a0.36,0.36,0,0,1-.38.38H535a8.91,8.91,0,0,1-1,1.51H564.2a1.89,1.89,0,0,0,1.89-1.89v-7.2A1.82,1.82,0,0,0,565.53,69.94Z" transform="translate(-518.08 -65.96)"/><path d="M527,82.28a7.41,7.41,0,1,1,5-12.89H534a8.91,8.91,0,1,0,0,11H532A7.37,7.37,0,0,1,527,82.28Z" transform="translate(-518.08 -65.96)"/><path d="M533.24,78.85A7.43,7.43,0,0,1,532,80.36H534a8.91,8.91,0,0,0,1-1.51h-1.73Z" transform="translate(-518.08 -65.96)"/><path d="M533.24,70.9H535a8.91,8.91,0,0,0-1-1.51H532A7.43,7.43,0,0,1,533.24,70.9Z" transform="translate(-518.08 -65.96)"/></svg>